<?xml version="1.0" encoding="iso-8859-1"?>
<!-- Generator: Adobe Illustrator 18.0.0, SVG Export Plug-In . SVG Version: 6.00 Build 0)  -->
<!DOCTYPE svg PUBLIC "-//W3C//DTD SVG 1.1//EN" "http://www.w3.org/Graphics/SVG/1.1/DTD/svg11.dtd">
<svg version="1.1" id="Capa_1" xmlns="http://www.w3.org/2000/svg" xmlns:xlink="http://www.w3.org/1999/xlink" x="0px" y="0px"
	 viewBox="0 0 423.92 423.92" style="enable-background:new 0 0 423.92 423.92;" xml:space="preserve">
<g>
	<path style="fill:#CCCCCC;" d="M409.381,355.331c-1.34-53.37-2.96-106.73-4.54-160.1c-0.07-2.11-0.74-4.2-1.08-6.08h-72.39
		c3.37,27.02-5.87,50.22-16.75,72.98c-3.33,6.97-7.18,13.69-10.63,20.61c-12.45,24.99-31.2,44.46-53.23,61.09
		c-20.19,15.23-22.26,15.8-44.22,3.33c-32.82-18.64-63.46-40.35-89.1-68.37c-18.82-20.57-30.22-44.38-28.69-72.96
		c0.43-7.94,2.31-15.79,3.65-24.53c-4.74-0.51-9.04-1.42-13.32-1.34c-8.44,0.15-16.87,1.27-25.29,1.2
		c-5.383-0.049-8.607,1.647-11.284,6.323c0.242-0.625,0.344-1.261,0.337-1.885c0.695-3.134-1.211-6.979-4.59-6.557
		c-0.766-0.525-1.681-0.854-2.696-0.868c-7.173-0.1-13.616,3.523-17.518,9.029c-1.201,0.231-2.343,0.931-3.176,2.253
		c-0.383,0.608-0.726,1.224-1.05,1.843c-1.58,0.696-2.882,2.145-3.133,4.335c-0.552,4.808-0.003,9.618,1.545,14.202
		c0.111,0.329,0.248,0.627,0.401,0.906c-0.694,2.104-1.31,4.195-1.829,6.233c-1.4,5.491,6.23,8.786,9.139,3.853
		c6.548-11.105,13.768-21.788,21.749-31.915c0.027-0.035,0.049-0.07,0.075-0.105c-6.435,11.515-12.962,23.037-20.409,33.903
		c-4.43,6.45-4.29,12.35-2.77,21.07c10.08-14.17,18.97-26.66,27.85-39.15c0.6,0.4,1.21,0.8,1.81,1.21
		c-1.99,3.38-3.84,6.86-5.99,10.14c-5.63,8.64-10.95,17.54-17.21,25.71c-8.44,10.98-8.47,22.59-4.4,36.23
		c9.31-15.26,17.21-30.3,29.01-42.67c-7.65,15.03-15.66,29.83-24.99,43.76c-5.17,7.72-6.38,15-3.55,24.86
		c8.8-12.23,17-23.64,25.21-35.05c0.65,0.46,1.3,0.91,1.95,1.37c-2.76,4.69-5.43,9.43-8.31,14.04c-5.46,8.75-11.42,17.22-16.4,26.23
		c-2.18,3.95-3.6,8.98-3.41,13.45c0.53,12.83,1.76,25.66,3.28,38.43c1.23,10.31,3.58,12.73,13.82,13.5
		c9.1,0.68,18.29,0.14,27.41,0.14c6.39-15.69,15.88-29.34,25.51-42.9c0.71,0.41,1.43,0.82,2.15,1.24
		c-7.87,13.66-15.74,27.33-24.08,41.81h19.93c6.9-13.59,14.73-25.61,24.48-36.35c-3.4,13.09-13.87,22.67-18.15,36.08h58.34
		c5.99-10.7,13.57-19.21,24.01-25.44c-5.89,7.94-11.78,15.87-19,25.62c6.28,0,9.87,0.05,13.46-0.01c31.68-0.53,63.35-1.27,95.02-1.5
		c8.33-0.06,14.36-2.14,19.48-9.37c5.53-7.79,11.66-15.49,20.49-20.41c-7.04,9.06-14.09,18.13-22.17,28.54h27.89
		c7.82-8.9,16.28-16.5,27.69-20.55c-5.67,5.97-11.34,11.95-17.52,18.46c2.04,0.71,2.99,1.33,3.93,1.32
		c22.45-0.23,44.91-0.17,67.34-0.95C408.091,371.061,409.731,369.231,409.381,355.331z M54.811,290.581c0.6,0.31,1.2,0.63,1.8,0.94
		c-0.86,1.95-1.46,4.08-2.64,5.81c-6.96,10.23-14.05,20.36-21.12,30.51c-0.14,0.19-0.66,0.35-0.83,0.24
		c-0.28-0.17-0.42-0.57-1.36-2.03C38.511,314.521,46.661,302.551,54.811,290.581z M30.061,365.841c-0.64-0.37-1.27-0.74-1.9-1.11
		c6.87-16.36,17.7-30.41,27.17-45.26c0.8,0.43,1.59,0.86,2.39,1.29C48.501,335.791,39.281,350.811,30.061,365.841z M46.441,370.611
		c5.65-15.76,15.85-28.72,24.89-42.37C70.211,336.061,56.331,360.201,46.441,370.611z M114.341,371.591
		c-0.76-0.59-1.53-1.18-2.29-1.78c5.59-11.5,12.79-22,22.3-31.09C127.681,349.681,121.011,360.631,114.341,371.591z
		 M136.531,370.181c1.73-10.33,8.68-16.86,14.79-24.01c0.59,0.44,1.18,0.87,1.77,1.3
		C147.571,355.041,142.051,362.611,136.531,370.181z M269.411,368.481c-0.88-0.81-1.75-1.62-2.63-2.43
		c4.84-5.41,9.69-10.82,14.54-16.23c0.65,0.54,1.3,1.08,1.96,1.62C278.651,357.121,274.031,362.801,269.411,368.481z
		 M301.521,369.881c0.52-8.66,6.16-15.35,19.42-22.57C313.581,355.861,307.831,362.541,301.521,369.881z M336.321,370.841
		c4.25-9.96,11.18-14,18.54-17.62C350.451,359.891,345.961,366.571,336.321,370.841z"/>
	<path d="M423.911,349.801c0.09,4.37-0.48,8.8-1.15,13.14c-2.21,14.22-5.08,17.45-19.43,19.58c-9.45,1.4-19.06,2.13-28.61,2.25
		c-38.7,0.47-77.41,0.46-116.11,0.88c-56.01,0.61-112.02,1.49-168.03,2.15c-16.52,0.2-33.04,0.19-49.56-0.09
		c-4.71-0.09-9.46-1.22-14.08-2.34c-10.16-2.47-15.72-9.1-16.52-19.54c-1.21-15.77-2.82-31.53-3.36-47.32
		c-0.8-22.83-0.6-45.69-1.16-68.53c-1.12-45.29-2.42-90.58-3.79-135.86c-0.15-5.11-1.23-10.2-1.85-15.31
		c-1.21-9.88,1.68-15.45,10.99-19.13c5.77-2.28,11.97-3.49,19.49-5.6c0.22-4.2,0.42-9.2,0.75-14.19
		c0.62-9.07,1.59-10.01,10.45-10.19c18.42-0.37,36.83-0.74,55.25-1.03c12.49-0.19,13.36,0.96,11.85,13.1
		c-0.5,3.94-0.08,7.99-0.08,13.35c10.55,1.26,20.98,0.63,32.59,0.66c-0.54-7.59-0.7-14.49-1.6-21.3
		c-1.41-10.73-0.85-14.52,12.44-15.71c30.55-2.74,61.07-2.43,91.62-2.77c1.47-0.02,2.95-0.03,4.42,0
		c10.9,0.23,12.37,2.08,11.97,13.39c-0.3,8.31-0.06,16.65-0.06,25.7c12.05,0,22.53,0,33.84,0c-0.9-6.5-2.09-12.55-2.49-18.65
		c-0.42-6.37,2.34-8.94,8.2-8.97c15.8-0.07,31.59-0.37,47.39-0.24c6.58,0.05,13.16,1.02,19.75,1.5c5.43,0.39,7.9,3.36,7.77,8.67
		c-0.09,3.68-0.42,7.35-0.31,11.02c0.08,2.79,0.68,5.56,0.83,6.65c11.09,2.52,20.72,4.44,30.19,6.97c5.11,1.36,7.68,5.38,8.03,10.74
		c0.79,12.1,1.9,24.18,2.44,36.29c0.91,20.96,1.35,41.94,2.26,62.9c0.95,22.05,2.32,44.09,3.33,66.15
		c0.46,9.93,0.46,19.89,0.72,29.83C422.841,308.571,423.511,329.181,423.911,349.801z M393.461,371.571
		c14.63-0.51,16.27-2.34,15.92-16.24c-1.34-53.37-2.96-106.73-4.54-160.1c-0.07-2.11-0.74-4.2-1.08-6.08c-24.28,0-47.91,0-72.39,0
		c3.37,27.02-5.87,50.22-16.75,72.98c-3.33,6.97-7.18,13.69-10.63,20.61c-12.45,24.99-31.2,44.46-53.23,61.09
		c-20.19,15.23-22.26,15.8-44.22,3.33c-32.82-18.64-63.46-40.35-89.1-68.37c-18.82-20.57-30.22-44.38-28.69-72.96
		c0.43-7.94,2.31-15.79,3.65-24.53c-4.74-0.51-9.04-1.42-13.32-1.34c-8.44,0.15-16.87,1.27-25.29,1.2c-5.46-0.05-8.7,1.69-11.4,6.52
		c-6.64,11.89-13.35,23.81-21.04,35.03c-4.43,6.45-4.29,12.35-2.77,21.07c10.08-14.17,18.97-26.66,27.85-39.15
		c0.6,0.4,1.21,0.8,1.81,1.21c-1.99,3.38-3.84,6.86-5.99,10.14c-5.63,8.64-10.95,17.54-17.21,25.71
		c-8.44,10.98-8.47,22.59-4.4,36.23c9.31-15.26,17.21-30.3,29.01-42.67c-7.65,15.03-15.66,29.83-24.99,43.76
		c-5.17,7.72-6.38,15-3.55,24.86c8.8-12.23,17-23.64,25.21-35.05c0.65,0.46,1.3,0.91,1.95,1.37c-2.76,4.69-5.43,9.43-8.31,14.04
		c-5.46,8.75-11.42,17.22-16.4,26.23c-2.18,3.95-3.6,8.98-3.41,13.45c0.53,12.83,1.76,25.66,3.28,38.43
		c1.23,10.31,3.58,12.73,13.82,13.5c9.1,0.68,18.29,0.14,27.41,0.14c6.39-15.69,15.88-29.34,25.51-42.9
		c0.71,0.41,1.43,0.82,2.15,1.24c-7.87,13.66-15.74,27.33-24.08,41.81c8.06,0,14.18,0,19.93,0c6.9-13.59,14.73-25.61,24.48-36.35
		c-3.4,13.09-13.87,22.67-18.15,36.08c20.36,0,39.46,0,58.34,0c5.99-10.7,13.57-19.21,24.01-25.44c-5.89,7.94-11.78,15.87-19,25.62
		c6.28,0,9.87,0.05,13.46-0.01c31.68-0.53,63.35-1.27,95.02-1.5c8.33-0.06,14.36-2.14,19.48-9.37c5.53-7.79,11.66-15.49,20.49-20.41
		c-7.04,9.06-14.09,18.13-22.17,28.54c10.83,0,19.52,0,27.89,0c7.82-8.9,16.28-16.5,27.69-20.55c-5.67,5.97-11.34,11.95-17.52,18.46
		c2.04,0.71,2.99,1.33,3.93,1.32C348.571,372.291,371.031,372.351,393.461,371.571z M403.761,179.541
		c1.79-29.98-2.02-58.35-4.71-87.55c-4.42-1.25-8.53-3.06-12.77-3.49c-10.97-1.11-22.01-2.31-33.01-2.23
		c-54.18,0.44-108.35,1.68-162.53,1.86c-34.26,0.11-68.53-1.05-102.79-1.8c-11.04-0.25-22.09-1.74-33.1-1.39
		c-11.71,0.36-23.45,1.72-35.03,3.59c-7.46,1.21-8.1,3.2-7.62,10.63c0.49,7.72,0.67,15.46,1.14,23.19c0.13,2.31,0.76,4.59,1.5,8.79
		c6.1-9.7,11.13-17.7,16.16-25.69c-3.06,16.78-19.37,28.68-15.32,49.58c8.51-11.54,15.95-21.62,23.4-31.71
		c0.88,2.52,0.16,4.07-0.76,5.48c-6.22,9.58-12.54,19.09-18.7,28.71c-1.77,2.76-3.93,5.67-4.39,8.74c-0.34,2.25,1.31,5.4,3.09,7.07
		c0.72,0.68,4.5-1.03,6.21-2.47c1.89-1.61,2.98-4.17,4.47-6.27c4.37-6.13,8.78-12.25,13.17-18.37c0.75,0.48,1.51,0.96,2.27,1.44
		c-4.9,8.07-9.8,16.15-15.37,25.33c23.71,0,45.37,0,67.09,0c24.93-45.44,95.52-46.35,126.2-6.61c14.35-21.32,34.2-32.91,59.87-30.3
		c27.13,2.76,39.57,22.79,47.99,46.23C355.121,181.371,379.221,180.461,403.761,179.541z M364.001,77.301
		c0.71-7.68,1.3-14.09,1.98-21.45c-5.71-0.74-10.77-1.39-15.9-2.06c1.09,8.63,2,15.77,2.98,23.51
		C355.901,77.301,359.441,77.301,364.001,77.301z M324.591,76.591c7.03,0,13.77,0,20.54,0c-0.36-7.3-0.69-14.15-1.09-22.23
		c-7.63,0.47-14.39,0.88-21.33,1.3C323.381,63.051,323.951,69.481,324.591,76.591z M317.411,222.401
		c6.16-20.73,3.5-40.91-9.18-59.06c-7.93-11.35-18.81-17.53-32.86-16.92c-14.6,0.63-27.34,5.64-36.54,17.59
		c-5.31,6.89-11.15,12.72-20.54,13.16c-0.65-0.32-1.42-0.53-1.93-1c-1.07-1-2.12-2.06-2.99-3.24
		c-17.71-23.98-42.77-27.75-69.31-22.71c-29.13,5.53-47.62,33.97-44.19,65.15c2.45,22.25,11.52,41.51,27.15,57.9
		c24.69,25.89,53.6,46.02,84.51,63.54c4.14,2.35,8.69,3.99,13.07,5.91c3.65,1.61,7.04,1.54,10.29-1.2
		c11.81-9.96,25.1-18.58,35.26-29.99C292.991,285.841,307.681,255.181,317.411,222.401z M317.081,75.061c0-6.65,0-12.44,0-19.22
		c-6.38,0-12.02,0-18.07,0c0.93,6.85,1.74,12.88,2.59,19.22C307.261,75.061,312.401,75.061,317.081,75.061z M248.581,74.821
		c0-10.05,0-18.73,0-28.53c-32.78,0.86-65.4-2.69-98.25,2.4c0,9.62,0,18.36,0,28.3C183.961,78.171,216.421,76.621,248.581,74.821z
		 M101.211,56.831c-4.76,0-8.47,0-13.07,0c0.76,6.7,1.4,12.36,2.08,18.41c3.86-0.18,6.68-0.32,9.87-0.48
		C100.471,68.551,100.831,62.821,101.211,56.831z M80.911,75.621c4.33-6.22,1.9-12.27,2.07-18.67c-2.64,0.33-4.72,0.58-8.68,1.07
		C78.801,63.391,74.681,70.431,80.911,75.621z M69.401,73.381c0-5.46,0-10.39,0-15.36c-3.94-0.69-7.17-1.26-12.22-2.14
		c0.82,6.74,1.47,12.04,2.13,17.5C63.371,73.381,66.511,73.381,69.401,73.381z M51.821,73.001c0-5.12,0-9.67,0-15.94
		c-4.27,0.39-7.7,0.71-11.4,1.06c0,5.31,0,9.84,0,14.88C44.421,73.001,47.831,73.001,51.821,73.001z M42.611,181.281
		c-2.27-0.74-3.21-1.28-4.18-1.32c-2.57-0.1-5.17-0.1-7.73,0.08c-7.09,0.49-14.86,7.83-14.82,14.87c0.05,7.56,1.1,15.11,1.92,25.29
		C26.841,206.021,34.551,193.921,42.611,181.281z"/>
	<path style="fill:#4D4D4D;" d="M399.051,91.991c2.69,29.2,6.5,57.57,4.71,87.55c-24.54,0.92-48.64,1.83-73.54,2.76
		c-8.42-23.44-20.86-43.47-47.99-46.23c-25.67-2.61-45.52,8.98-59.87,30.3c-30.68-39.74-101.27-38.83-126.2,6.61
		c-21.72,0-43.38,0-67.09,0c5.57-9.18,10.47-17.26,15.37-25.33c-0.76-0.48-1.52-0.96-2.27-1.44c-4.39,6.12-8.8,12.24-13.17,18.37
		c-1.49,2.1-2.58,4.66-4.47,6.27c-1.71,1.44-5.49,3.15-6.21,2.47c-1.78-1.67-3.43-4.82-3.09-7.07c0.46-3.07,2.62-5.98,4.39-8.74
		c6.16-9.62,12.48-19.13,18.7-28.71c0.92-1.41,1.64-2.96,0.76-5.48c-7.45,10.09-14.89,20.17-23.4,31.71
		c-4.05-20.9,12.26-32.8,15.32-49.58c-5.03,7.99-10.06,15.99-16.16,25.69c-0.74-4.2-1.37-6.48-1.5-8.79
		c-0.47-7.73-0.65-15.47-1.14-23.19c-0.48-7.43,0.16-9.42,7.62-10.63c11.58-1.87,23.32-3.23,35.03-3.59
		c11.01-0.35,22.06,1.14,33.1,1.39c34.26,0.75,68.53,1.91,102.79,1.8c54.18-0.18,108.35-1.42,162.53-1.86
		c11-0.08,22.04,1.12,33.01,2.23C390.521,88.931,394.631,90.741,399.051,91.991z M377.611,137.561
		c1.14-12.95-9.45-25.95-21.41-26.28c-9.34-0.26-19.59,9.61-20.49,19.76c-1.16,13.02,6.95,20.02,24.55,21.17
		C369.661,152.821,376.811,146.791,377.611,137.561z"/>
	<path d="M356.201,111.281c11.96,0.33,22.55,13.33,21.41,26.28c-0.8,9.23-7.95,15.26-17.35,14.65c-17.6-1.15-25.71-8.15-24.55-21.17
		C336.611,120.891,346.861,111.021,356.201,111.281z M371.041,135.851c0.15-9.09-6.25-16.54-14.22-16.54
		c-6.32,0-11.64,6.13-11.73,13.5c-0.09,7.78,6.54,13.45,15.68,13.4C367.041,146.181,370.931,142.261,371.041,135.851z"/>
	<path style="fill:#FBB03B;" d="M356.821,119.311c7.97,0,14.37,7.45,14.22,16.54c-0.11,6.41-4,10.33-10.27,10.36
		c-9.14,0.05-15.77-5.62-15.68-13.4C345.181,125.441,350.501,119.311,356.821,119.311z"/>
	<path style="fill:#999999;" d="M365.981,55.851c-0.68,7.36-1.27,13.77-1.98,21.45c-4.56,0-8.1,0-10.94,0
		c-0.98-7.74-1.89-14.88-2.98-23.51C355.211,54.461,360.271,55.111,365.981,55.851z"/>
	<path d="M354.861,353.221c-4.41,6.67-8.9,13.35-18.54,17.62C340.571,360.881,347.501,356.841,354.861,353.221z"/>
	<path style="fill:#999999;" d="M345.131,76.591c-6.77,0-13.51,0-20.54,0c-0.64-7.11-1.21-13.54-1.88-20.93
		c6.94-0.42,13.7-0.83,21.33-1.3C344.441,62.441,344.771,69.291,345.131,76.591z"/>
	<path style="fill:#333333;" d="M308.231,163.341c12.68,18.15,15.34,38.33,9.18,59.06c-9.73,32.78-24.42,63.44-47.26,89.13
		c-10.16,11.41-23.45,20.03-35.26,29.99c-3.25,2.74-6.64,2.81-10.29,1.2c-4.38-1.92-8.93-3.56-13.07-5.91
		c-30.91-17.52-59.82-37.65-84.51-63.54c-15.63-16.39-24.7-35.65-27.15-57.9c-3.43-31.18,15.06-59.62,44.19-65.15
		c26.54-5.04,51.6-1.27,69.31,22.71c0.87,1.18,1.92,2.24,2.99,3.24c0.51,0.47,1.28,0.68,1.93,1c9.39-0.44,15.23-6.27,20.54-13.16
		c9.2-11.95,21.94-16.96,36.54-17.59C289.421,145.811,300.301,151.991,308.231,163.341z M292.851,218.511
		c1.49-5.17,1.45-10.93,1.34-16.4c-0.27-13.44-6.16-21.76-19.11-24.87c-18.24-4.38-35.03-1.55-48.21,13.33
		c-2.67,3.02-5.31,6.07-7.63,8.72c-5.96-5.88-9.97-11.39-15.31-14.79c-13.1-8.32-27.49-9.52-42.42-5.18
		c-13.19,3.83-21.84,11.99-24.55,25.58c-5.13,25.7,2.34,48.09,19.31,67.32c9.29,10.53,20.52,19.02,33.35,25.03
		c11.32,5.3,22.7,10.48,34.18,15.43c11.16,4.81,11.42,4.28,19.97-4.15C269.231,283.441,283.161,252.101,292.851,218.511z"/>
	<path style="fill:#999999;" d="M317.081,55.841c0,6.78,0,12.57,0,19.22c-4.68,0-9.82,0-15.48,0c-0.85-6.34-1.66-12.37-2.59-19.22
		C305.061,55.841,310.701,55.841,317.081,55.841z"/>
	<path d="M320.941,347.311c-7.36,8.55-13.11,15.23-19.42,22.57C302.041,361.221,307.681,354.531,320.941,347.311z"/>
	<path d="M294.191,202.111c0.11,5.47,0.15,11.23-1.34,16.4c-9.69,33.59-23.62,64.93-49.08,90.02c-8.55,8.43-8.81,8.96-19.97,4.15
		c-11.48-4.95-22.86-10.13-34.18-15.43c-12.83-6.01-24.06-14.5-33.35-25.03c-16.97-19.23-24.44-41.62-19.31-67.32
		c2.71-13.59,11.36-21.75,24.55-25.58c14.93-4.34,29.32-3.14,42.42,5.18c5.34,3.4,9.35,8.91,15.31,14.79
		c2.32-2.65,4.96-5.7,7.63-8.72c13.18-14.88,29.97-17.71,48.21-13.33C288.031,180.351,293.921,188.671,294.191,202.111z
		 M284.041,213.311c1.07-3.77,0.91-8.06,0.57-12.05c-0.87-9.99-6.03-15.77-15.9-16.76c-12.88-1.29-24.97,1-34.47,10.92
		c-3.82,3.98-7.64,7.96-11.49,11.92c-5.3,5.43-8.65,5.26-11.04-1.66c-5.08-14.71-26.51-24.46-47.06-18.24
		c-15.29,4.63-23.48,19.71-20.51,38.01c3.11,19.15,11.56,35.19,26.71,48.06c17.85,15.16,39.78,21.89,61.89,33.05
		c4.74-5.26,8.92-9.89,13.09-14.53C266.111,269.461,275.951,241.781,284.041,213.311z"/>
	<path style="fill:#C1272D;" d="M284.611,201.261c0.34,3.99,0.5,8.28-0.57,12.05c-8.09,28.47-17.93,56.15-38.21,78.72
		c-4.17,4.64-8.35,9.27-13.09,14.53c-22.11-11.16-44.04-17.89-61.89-33.05c-15.15-12.87-23.6-28.91-26.71-48.06
		c-2.97-18.3,5.22-33.38,20.51-38.01c20.55-6.22,41.98,3.53,47.06,18.24c2.39,6.92,5.74,7.09,11.04,1.66
		c3.85-3.96,7.67-7.94,11.49-11.92c9.5-9.92,21.59-12.21,34.47-10.92C278.581,185.491,283.741,191.271,284.611,201.261z"/>
	<path d="M283.281,351.441c-4.63,5.68-9.25,11.36-13.87,17.04c-0.88-0.81-1.75-1.62-2.63-2.43c4.84-5.41,9.69-10.82,14.54-16.23
		C281.971,350.361,282.621,350.901,283.281,351.441z"/>
	<path style="fill:#999999;" d="M248.581,46.291c0,9.8,0,18.48,0,28.53c-32.16,1.8-64.62,3.35-98.25,2.17c0-9.94,0-18.68,0-28.3
		C183.181,43.601,215.801,47.151,248.581,46.291z"/>
	<path d="M153.091,347.471c-5.52,7.57-11.04,15.14-16.56,22.71c1.73-10.33,8.68-16.86,14.79-24.01
		C151.911,346.611,152.501,347.041,153.091,347.471z"/>
	<path d="M134.351,338.721c-6.67,10.96-13.34,21.91-20.01,32.87c-0.76-0.59-1.53-1.18-2.29-1.78
		C117.641,358.311,124.841,347.811,134.351,338.721z"/>
	<path style="fill:#999999;" d="M88.141,56.831c4.6,0,8.31,0,13.07,0c-0.38,5.99-0.74,11.72-1.12,17.93
		c-3.19,0.16-6.01,0.3-9.87,0.48C89.541,69.191,88.901,63.531,88.141,56.831z"/>
	<path style="fill:#999999;" d="M82.981,56.951c-0.17,6.4,2.26,12.45-2.07,18.67c-6.23-5.19-2.11-12.23-6.61-17.6
		C78.261,57.531,80.341,57.281,82.981,56.951z"/>
	<path style="fill:#999999;" d="M69.401,58.021c0,4.97,0,9.9,0,15.36c-2.89,0-6.03,0-10.09,0c-0.66-5.46-1.31-10.76-2.13-17.5
		C62.231,56.761,65.461,57.331,69.401,58.021z"/>
	<path d="M71.331,328.241c-1.12,7.82-15,31.96-24.89,42.37C52.091,354.851,62.291,341.891,71.331,328.241z"/>
	<path d="M57.721,320.761c-9.22,15.03-18.44,30.05-27.66,45.08c-0.64-0.37-1.27-0.74-1.9-1.11c6.87-16.36,17.7-30.41,27.17-45.26
		C56.131,319.901,56.921,320.331,57.721,320.761z"/>
	<path d="M54.811,290.581c0.6,0.31,1.2,0.63,1.8,0.94c-0.86,1.95-1.46,4.08-2.64,5.81c-6.96,10.23-14.05,20.36-21.12,30.51
		c-0.14,0.19-0.66,0.35-0.83,0.24c-0.28-0.17-0.42-0.57-1.36-2.03C38.511,314.521,46.661,302.551,54.811,290.581z"/>
	<path style="fill:#999999;" d="M51.821,57.061c0,6.27,0,10.82,0,15.94c-3.99,0-7.4,0-11.4,0c0-5.04,0-9.57,0-14.88
		C44.121,57.771,47.551,57.451,51.821,57.061z"/>
</g>
<g>
</g>
<g>
</g>
<g>
</g>
<g>
</g>
<g>
</g>
<g>
</g>
<g>
</g>
<g>
</g>
<g>
</g>
<g>
</g>
<g>
</g>
<g>
</g>
<g>
</g>
<g>
</g>
<g>
</g>
</svg>
